# File created by Blade
# Date/Time:  Thu Jan 22 18:25:10 2015
# Frame Rate: 120.000 fps
#------------------------------------------------------
:FULLY-SPECIFIED
:DEGREES
1444
root -2.972225 33.283796 0.514095 5.950405 -3.817456 2.594719
RightUpLeg 1.735461 -3.045107 -2.244919
RightLeg -0.085629 -0.000000 0.000000
RightFoot -10.878204 -3.534858 3.537507
RightToeBase 5.431841 -0.000000 -0.000000
LeftUpLeg 2.233014 4.865252 0.720335
LeftLeg 1.196243 -0.000000 -0.000000
LeftFoot -10.296216 3.336240 -9.872071
LeftToeBase 8.317775 -0.000000 -0.000000
Spine -9.338318 -5.754861 -4.176198
RightShoulder -18.728214 6.036595 -49.544919
RightArm 34.772427 70.060540 40.679783
RightForeArm 76.500407 -0.000000 123.188242
RightHand 10.101874 -0.000000 -33.728651
RightHandThumb1 -24.326973 -0.000000 -32.862282
LeftShoulder -28.964641 -16.823984 64.028230
LeftArm 126.916194 -54.545009 -82.684970
LeftForeArm -10.578679 -0.000000 132.722734
LeftHand -5.425537 -0.000000 4.140136
LeftHandThumb1 -26.253704 0.000000 33.147579
Head 18.621270 17.275056 3.247031
1445
root -2.972674 33.284063 0.513677 5.951989 -3.808953 2.596988
RightUpLeg 1.732121 -3.044239 -2.243908
RightLeg -0.080141 -0.000000 0.000000
RightFoot -10.884893 -3.556266 3.522239
RightToeBase 5.437596 -0.000000 -0.000000
LeftUpLeg 2.229287 4.869614 0.719103
LeftLeg 1.194981 -0.000000 -0.000000
LeftFoot -10.292393 3.333120 -9.876218
LeftToeBase 8.357372 -0.000000 -0.000000
Spine -9.329827 -5.783792 -4.173350
RightShoulder -18.728235 6.012778 -49.530595
RightArm 34.779266 70.099356 40.695875
RightForeArm 76.504262 -0.000000 123.197312
RightHand 10.094987 -0.000000 -33.745331
RightHandThumb1 -24.326973 -0.000000 -32.862282
LeftShoulder -28.962169 -16.805627 64.020047
LeftArm 126.972573 -54.557947 -82.725633
LeftForeArm -10.563563 -0.000000 132.723419
LeftHand -5.403332 -0.000000 4.149122
LeftHandThumb1 -26.253704 0.000000 33.147579
Head 18.607218 17.279407 3.253683
1446
root -2.973871 33.284537 0.512994 5.959220 -3.798256 2.596830
RightUpLeg 1.730545 -3.062371 -2.242645
RightLeg -0.090093 -0.000000 0.000000
RightFoot -10.874254 -3.530921 3.540357
RightToeBase 5.393488 -0.000000 -0.000000
LeftUpLeg 2.217761 4.866867 0.727531
LeftLeg 1.193996 -0.000000 -0.000000
LeftFoot -10.270919 3.307751 -9.847337
LeftToeBase 8.291310 -0.000000 -0.000000
Spine -9.326743 -5.800686 -4.169555
RightShoulder -18.736903 6.033190 -49.538639
RightArm 34.594341 70.063436 40.519452
RightForeArm 76.486639 -0.000000 123.203719
RightHand 10.236163 -0.000000 -33.732867
RightHandThumb1 -24.326973 -0.000000 -32.862282
LeftShoulder -28.966277 -16.779541 64.004854
LeftArm 127.039543 -54.555949 -82.774763
LeftForeArm -10.529959 -0.000000 132.733208
LeftHand -5.398351 -0.000000 4.189433
LeftHandThumb1 -26.253704 0.000000 33.147579
Head 18.590635 17.288214 3.270615
1447
root -2.972706 33.284914 0.513056 5.960253 -3.795055 2.600359
RightUpLeg 1.732186 -3.040022 -2.246657
RightLeg -0.094130 -0.000000 0.000000
RightFoot -10.876538 -3.557676 3.552201
RightToeBase 5.428287 -0.000000 -0.000000
LeftUpLeg 2.219725 4.869739 0.721680
LeftLeg 1.186559 -0.000000 -0.000000
LeftFoot -10.258774 3.307857 -9.846239
LeftToeBase 8.260415 -0.000000 -0.000000
Spine -9.321972 -5.808227 -4.165271
RightShoulder -18.741014 6.024386 -49.535297
RightArm 34.518863 70.071631 40.447131
RightForeArm 76.494447 -0.000000 123.210509
RightHand 10.271128 0.000000 -33.723594
RightHandThumb1 -24.326973 -0.000000 -32.862282
LeftShoulder -28.965503 -16.781420 64.002484
LeftArm 127.057918 -54.556571 -82.786501
LeftForeArm -10.515398 -0.000000 132.737630
LeftHand -5.371599 -0.000000 4.187596
LeftHandThumb1 -26.253704 0.000000 33.147579
Head 18.587693 17.267715 3.275807
1448
root -2.972535 33.285056 0.512513 5.962226 -3.789668 2.604185
RightUpLeg 1.733692 -3.031200 -2.250609
RightLeg -0.101681 -0.000000 0.000000
RightFoot -10.868293 -3.566878 3.570084
RightToeBase 5.409187 -0.000000 -0.000000
LeftUpLeg 2.218901 4.858209 0.716981
LeftLeg 1.179879 -0.000000 -0.000000
LeftFoot -10.256196 3.314817 -9.851795
LeftToeBase 8.294356 -0.000000 -0.000000
Spine -9.314411 -5.825300 -4.162922
RightShoulder -18.735204 5.990098 -49.519605
RightArm 34.543181 70.125459 40.473395
RightForeArm 76.489290 0.000000 123.226418
RightHand 10.239129 -0.000000 -33.786571
RightHandThumb1 -24.326973 -0.000000 -32.862282
LeftShoulder -28.960197 -16.784575 63.998004
LeftArm 127.073549 -54.577397 -82.783826
LeftForeArm -10.481544 -0.000000 132.739302
LeftHand -5.383766 -0.000000 4.252852
LeftHandThumb1 -26.253704 0.000000 33.147579
Head 18.572442 17.267110 3.284583
1449
root -2.972721 33.285335 0.512115 5.965060 -3.787374 2.605968
RightUpLeg 1.732056 -3.030932 -2.251397
RightLeg -0.105433 -0.000000 0.000000
RightFoot -10.870443 -3.572223 3.545904
RightToeBase 5.429992 -0.000000 -0.000000
LeftUpLeg 2.215445 4.867732 0.716840
LeftLeg 1.177727 -0.000000 -0.000000
LeftFoot -10.246348 3.301373 -9.842039
LeftToeBase 8.285038 -0.000000 -0.000000
Spine -9.308380 -5.833946 -4.161794
RightShoulder -18.744493 5.984484 -49.510978
RightArm 34.532127 70.137842 40.453641
RightForeArm 76.424497 -0.000000 123.256701
RightHand 10.016081 -0.000000 -34.271190
RightHandThumb1 -24.326973 -0.000000 -32.862282
LeftShoulder -28.959847 -16.779934 63.994617
LeftArm 127.108343 -54.579837 -82.811035
LeftForeArm -10.466946 0.000000 132.745145
LeftHand -5.354341 -0.000000 4.253443
LeftHandThumb1 -26.253704 0.000000 33.147579
Head 18.556326 17.259341 3.295930
1450
root -2.972623 33.285668 0.510127 5.969350 -3.786226 2.605794
RightUpLeg 1.723130 -3.036319 -2.250896
RightLeg -0.102597 -0.000000 0.000000
RightFoot -10.866791 -3.569383 3.544105
RightToeBase 5.454946 -0.000000 -0.000000
LeftUpLeg 2.210008 4.855504 0.715944
LeftLeg 1.173544 -0.000000 -0.000000
LeftFoot -10.241631 3.314670 -9.835885
LeftToeBase 8.285442 -0.000000 -0.000000
Spine -9.302589 -5.837466 -4.161969
RightShoulder -18.743305 5.951511 -49.485589
RightArm 34.553755 70.173165 40.470500
RightForeArm 76.396670 -0.000000 123.269938
RightHand 10.004353 -0.000000 -34.325506
RightHandThumb1 -24.326973 -0.000000 -32.862282
LeftShoulder -28.960218 -16.782702 63.999629
LeftArm 127.130558 -54.572825 -82.824916
LeftForeArm -10.481106 -0.000000 132.753617
LeftHand -5.361390 -0.000000 4.242499
LeftHandThumb1 -26.253704 0.000000 33.147579
Head 18.543011 17.239365 3.309086
1451
root -2.972246 33.286105 0.509067 5.973017 -3.788273 2.606606
RightUpLeg 1.719265 -3.024329 -2.251823
RightLeg -0.106031 -0.000000 0.000000
RightFoot -10.861585 -3.575573 3.572427
RightToeBase 5.466804 -0.000000 -0.000000
LeftUpLeg 2.207395 4.862070 0.712900
LeftLeg 1.166092 -0.000000 -0.000000
LeftFoot -10.232345 3.323073 -9.819953
LeftToeBase 8.267885 -0.000000 -0.000000
Spine -9.297021 -5.847234 -4.156951
RightShoulder -18.748868 5.958027 -49.488599
RightArm 34.546286 70.163889 40.481914
RightForeArm 76.451698 -0.000000 123.254696
RightHand 10.225324 -0.000000 -33.879136
RightHandThumb1 -24.326973 -0.000000 -32.862282
LeftShoulder -28.957847 -16.782149 63.995981
LeftArm 127.158556 -54.580159 -82.841903
LeftForeArm -10.460192 0.000000 132.758593
LeftHand -5.359005 0.000000 4.315414
LeftHandThumb1 -26.253704 0.000000 33.147579
Head 18.523360 17.237146 3.314253
1452
root -2.973043 33.286382 0.507718 5.978752 -3.792222 2.605601
RightUpLeg 1.711057 -3.021442 -2.250371
RightLeg -0.107091 -0.000000 0.000000
RightFoot -10.858821 -3.572949 3.542318
RightToeBase 5.405154 -0.000000 -0.000000
LeftUpLeg 2.202845 4.861071 0.712352
LeftLeg 1.161137 -0.000000 -0.000000
LeftFoot -10.228356 3.335300 -9.815639
LeftToeBase 8.258257 -0.000000 -0.000000
Spine -9.291742 -5.848141 -4.157456
RightShoulder -18.753853 5.948307 -49.479941
RightArm 34.558305 70.179369 40.500712
RightForeArm 76.452947 -0.000000 123.252963
RightHand 10.254291 -0.000000 -33.852631
RightHandThumb1 -24.326973 -0.000000 -32.862282
LeftShoulder -28.957820 -16.767740 63.984354
LeftArm 127.217052 -54.579791 -82.888882
LeftForeArm -10.459453 -0.000000 132.764863
LeftHand -5.349972 -0.000000 4.292049
LeftHandThumb1 -26.253704 0.000000 33.147579
Head 18.501663 17.220300 3.328273
1453
root -2.972688 33.286331 0.506568 5.981578 -3.800199 2.606337
RightUpLeg 1.706120 -3.020497 -2.252020
RightLeg -0.111637 -0.000000 0.000000
RightFoot -10.855613 -3.569109 3.554785
RightToeBase 5.421971 -0.000000 -0.000000
LeftUpLeg 2.200023 4.879183 0.710722
LeftLeg 1.158182 -0.000000 -0.000000
LeftFoot -10.226436 3.319867 -9.845207
LeftToeBase 8.291752 -0.000000 -0.000000
Spine -9.283973 -5.853019 -4.153726
RightShoulder -18.749130 5.930025 -49.472210
RightArm 34.581513 70.214127 40.535121
RightForeArm 76.443280 -0.000000 123.250243
RightHand 10.228277 -0.000000 -33.829655
RightHandThumb1 -24.326973 -0.000000 -32.862282
LeftShoulder -28.967327 -16.773195 63.988328
LeftArm 127.215293 -54.578463 -82.884862
LeftForeArm -10.455680 -0.000000 132.768579
LeftHand -5.330944 0.000000 4.288622
LeftHandThumb1 -26.253704 0.000000 33.147579
Head 18.477671 17.226114 3.338421
